<?xml version="1.0" encoding="UTF-8"?>
<svg width="17px" height="15px" viewBox="0 0 17 15" version="1.1" xmlns="http://www.w3.org/2000/svg" xmlns:xlink="http://www.w3.org/1999/xlink">
    <!-- Generator: Sketch 51.2 (57519) - http://www.bohemiancoding.com/sketch -->
    <title>555</title>
    <desc>Created with Sketch.</desc>
    <defs></defs>
    <g id="Page-1" stroke="none" stroke-width="1" fill="none" fill-rule="evenodd">
        <g id="图标" transform="translate(-116.000000, -84.000000)" fill="#000000" fill-rule="nonzero">
            <g id="555" transform="translate(116.000000, 84.000000)">
                <path d="M11.4,4 L7.7,7.4 L5.9,5.6 C5.7,5.4 5.4,5.4 5.2,5.6 C5,5.8 5,6.1 5.2,6.3 L7.7,8.7 L12.2,4.7 C12.4,4.5 12.4,4.2 12.2,4 C12,3.8 11.6,3.8 11.4,4 Z" id="Shape"></path>
                <path d="M16.6,1.5 C16.6,0.7 16,0 15.1,0 L2.1,0 C1.3,0 0.6,0.7 0.6,1.5 L0.6,10.5 C0.6,11.3 1.3,12 2.1,12 L6.2,12 L5.4,15 L11.7,15 L11,12 L16.6,12 L16.6,1.5 Z M10.5,14 L6.8,14 L7.3,12 L10,12 L10.5,14 Z M15.6,11 L10.8,11 L6.5,11 L2.1,11 C1.8,11 1.6,10.8 1.6,10.5 L1.6,1.5 C1.6,1.2 1.9,1 2.1,1 L15.1,1 C15.4,1 15.6,1.2 15.6,1.5 L15.6,11 Z" id="Shape"></path>
            </g>
        </g>
    </g>
</svg>