<?xml version="1.0" encoding="UTF-8"?>
<svg width="14px" height="16px" viewBox="0 0 14 16" version="1.1" xmlns="http://www.w3.org/2000/svg" xmlns:xlink="http://www.w3.org/1999/xlink">
    <!-- Generator: Sketch 51.2 (57519) - http://www.bohemiancoding.com/sketch -->
    <title>111</title>
    <desc>Created with Sketch.</desc>
    <defs></defs>
    <g id="Page-1" stroke="none" stroke-width="1" fill="none" fill-rule="evenodd">
        <g id="图标" transform="translate(-47.000000, -83.000000)" fill-rule="nonzero">
            <g id="111" transform="translate(47.000000, 83.000000)">
                <path d="M9.6,11.2 C10,10.6 10.2,10 10.2,9.3 C10.2,7.4 8.6,5.8 6.7,5.8 C4.8,5.8 3.2,7.3 3.2,9.2 C3.2,11.1 4.8,12.7 6.7,12.7 C7.6,12.7 8.3,12.4 8.9,11.9 L11.8,14.9 C12,15 12.1,15 12.2,15 C12.3,15 12.5,15 12.6,14.9 C12.8,14.7 12.8,14.4 12.6,14.2 L9.6,11.2 Z M6.7,11.7 C5.3,11.7 4.2,10.6 4.2,9.2 C4.2,7.8 5.3,6.7 6.7,6.7 C8.1,6.7 9.2,7.8 9.2,9.2 C9.2,10.6 8.1,11.7 6.7,11.7 Z" id="Shape" fill="currentColor"></path>
                <path d="M9.4,0.8 L9.3,0.6 L1.7,0.6 C0.9,0.6 0.2,1.2 0.2,2 L0.2,15.6 L9.3,15.6 C9.6,15.6 9.8,15.4 9.8,15.1 C9.8,14.8 9.6,14.6 9.3,14.6 L1.2,14.6 L1.2,2 C1.2,1.8 1.4,1.6 1.6,1.6 L8.3,1.6 L8.3,4.1 C8.3,4.9 8.9,5.5 9.7,5.5 L12.1,5.5 L12.1,11.6 C12.1,11.9 12.3,12.1 12.6,12.1 C12.9,12.1 13.1,11.9 13.1,11.6 L13.1,4.8 L9.4,0.8 Z M9.4,4.1 L9.4,2.2 L11.6,4.5 L9.8,4.5 C9.6,4.5 9.4,4.3 9.4,4.1 Z" id="Shape" fill="currentColor"></path>
            </g>
        </g>
    </g>
</svg>