<?xml version="1.0" encoding="UTF-8"?>
<svg width="14px" height="14px" viewBox="0 0 14 14" version="1.1" xmlns="http://www.w3.org/2000/svg" xmlns:xlink="http://www.w3.org/1999/xlink">
    <!-- Generator: Sketch 51.2 (57519) - http://www.bohemiancoding.com/sketch -->
    <title>444</title>
    <desc>Created with Sketch.</desc>
    <defs></defs>
    <g id="Page-1" stroke="none" stroke-width="1" fill="none" fill-rule="evenodd">
        <g id="图标" transform="translate(-191.000000, -84.000000)" fill="#000000" fill-rule="nonzero">
            <g id="444" transform="translate(191.000000, 84.000000)">
                <g id="XMLID_7_">
                    <path d="M14,14 L1.5,14 C0.7,14 0,13.3 0,12.5 L0,1.5 C0,0.7 0.7,0 1.5,0 L12.5,0 C13.3,0 14,0.7 14,1.5 L14,14 Z M1.5,1 C1.2,1 1,1.2 1,1.5 L1,12.5 C1,12.8 1.2,13 1.5,13 L13,13 L13,1.5 C13,1.2 12.8,1 12.5,1 L1.5,1 Z" id="Shape"></path>
                </g>
                <path d="M4.5,11.5 C4,11.5 3.5,11.3 3.1,10.9 C2.7,10.5 2.5,10 2.5,9.5 C2.5,9 2.7,8.5 3.1,8.1 L3.8,7.4 C4,7.2 4.3,7.2 4.5,7.4 C4.7,7.6 4.7,7.9 4.5,8.1 L3.8,8.8 C3.6,9 3.5,9.2 3.5,9.5 C3.5,9.8 3.6,10 3.8,10.2 C4.2,10.6 4.8,10.6 5.2,10.2 L7.3,8.1 C7.7,7.7 7.7,7.1 7.3,6.7 C7.1,6.5 7.1,6.2 7.3,6 C7.5,5.8 7.8,5.8 8,6 C8.8,6.8 8.8,8 8,8.8 L5.9,10.9 C5.5,11.3 5,11.5 4.5,11.5 Z M6.3,8.2 C6.2,8.2 6,8.2 5.9,8.1 C5.6,7.7 5.4,7.2 5.4,6.6 C5.4,6.1 5.6,5.6 6,5.2 L8.1,3.1 C8.9,2.3 10.1,2.3 10.9,3.1 C11.3,3.5 11.5,4 11.5,4.5 C11.5,5 11.3,5.5 10.9,5.9 L10.2,6.6 C10,6.8 9.7,6.8 9.5,6.6 C9.3,6.4 9.3,6.1 9.5,5.9 L10.2,5.2 C10.4,5 10.5,4.8 10.5,4.5 C10.5,4.2 10.4,4 10.2,3.8 C9.8,3.4 9.2,3.4 8.8,3.8 L6.6,5.9 C6.5,6.1 6.4,6.4 6.4,6.6 C6.4,6.9 6.5,7.1 6.7,7.3 C6.9,7.5 6.9,7.8 6.7,8 C6.5,8.2 6.4,8.2 6.3,8.2 Z" id="Shape"></path>
            </g>
        </g>
    </g>
</svg>