<?xml version="1.0" encoding="UTF-8"?>
<svg width="18px" height="14px" viewBox="0 0 18 14" version="1.1" xmlns="http://www.w3.org/2000/svg" xmlns:xlink="http://www.w3.org/1999/xlink">
    <!-- Generator: Sketch 51.2 (57519) - http://www.bohemiancoding.com/sketch -->
    <title>333</title>
    <desc>Created with Sketch.</desc>
    <defs></defs>
    <g id="Page-1" stroke="none" stroke-width="1" fill="none" fill-rule="evenodd">
        <g id="图标" transform="translate(-153.000000, -84.000000)" fill="#000000" fill-rule="nonzero">
            <g id="333" transform="translate(153.000000, 84.000000)">
                <path d="M4.3,10.5 C4.4,10.6 4.5,10.6 4.6,10.6 C4.7,10.6 4.9,10.5 5,10.4 C5.2,10.2 5.1,9.9 4.9,9.7 C3.8,8.8 3.2,7.5 3.2,6 C3.2,3.3 5.4,1.2 8,1.2 C10.4,1.2 12.4,2.9 12.7,5.3 C12.7,5.6 13,5.8 13.3,5.7 C13.6,5.7 13.8,5.4 13.7,5.1 C13.3,2.2 10.9,0.2 8,0.2 C4.8,0.2 2.2,2.8 2.2,6 C2.2,7.8 2.9,9.4 4.3,10.5 Z" id="Shape"></path>
                <path d="M16.8,2.5 C16.2,1.5 15.1,1 13.6,0.8 C13.3,0.8 13.1,1 13.1,1.3 C13.1,1.6 13.3,1.8 13.6,1.8 C14.4,1.9 15.5,2.1 16,3 C16.8,4.4 15.5,7 12.8,9.2 C12.3,8.5 11.6,8.1 10.8,8.1 C9.4,8.1 8.3,9.3 8.3,10.7 C8.3,11.1 8.4,11.4 8.5,11.8 C5.2,13 2.3,13 1.5,11.7 C1,10.9 1.5,9.8 1.9,9.2 C2,9 2,8.7 1.7,8.5 C1.5,8.4 1.2,8.4 1,8.7 C0.2,10.1 3.33066907e-16,11.3 0.6,12.3 C1.2,13.3 2.5,13.8 4.2,13.8 C5.6,13.8 7.2,13.5 9,12.8 C9,12.8 9,12.8 9,12.8 C9.4,13.2 10,13.5 10.7,13.5 C12.1,13.5 13.2,12.3 13.2,10.9 C13.2,10.7 13.2,10.5 13.1,10.3 C16.5,7.5 17.9,4.4 16.8,2.5 Z M10.7,12.3 C9.9,12.3 9.2,11.6 9.2,10.7 C9.2,9.8 9.9,9.1 10.7,9.1 C11.5,9.1 12.2,9.8 12.2,10.7 C12.2,11.6 11.6,12.3 10.7,12.3 Z" id="Shape"></path>
            </g>
        </g>
    </g>
</svg>