<?xml version="1.0" encoding="UTF-8"?>
<svg width="18px" height="13px" viewBox="0 0 18 13" version="1.1" xmlns="http://www.w3.org/2000/svg" xmlns:xlink="http://www.w3.org/1999/xlink">
    <!-- Generator: Sketch 51.2 (57519) - http://www.bohemiancoding.com/sketch -->
    <title>222</title>
    <desc>Created with Sketch.</desc>
    <defs></defs>
    <g id="Page-1" stroke="none" stroke-width="1" fill="none" fill-rule="evenodd">
        <g id="图标" transform="translate(-79.000000, -85.000000)" fill="#000000" fill-rule="nonzero">
            <g id="222" transform="translate(79.000000, 85.000000)">
                <g id="XMLID_18_">
                    <path d="M17.5,13 L2,13 C1.2,13 0.5,12.3 0.5,11.5 L0.5,1.5 C0.5,0.7 1.2,0 2,0 L16,0 C16.8,0 17.5,0.7 17.5,1.5 L17.5,13 Z M2,1 C1.7,1 1.5,1.2 1.5,1.5 L1.5,11.5 C1.5,11.8 1.7,12 2,12 L16.5,12 L16.5,1.5 C16.5,1.3 16.3,1 16,1 L2,1 Z" id="Shape"></path>
                </g>
                <g id="XMLID_17_" transform="translate(4.000000, 2.000000)">
                    <path d="M4,4.2 L1.5,4.2 C0.7,4.2 0,3.5 0,2.7 L0,1.7 C0,0.9 0.7,0.2 1.5,0.2 L2.5,0.2 C3.3,0.2 4,0.9 4,1.7 L4,4.2 Z M1.5,1.2 C1.2,1.2 1,1.4 1,1.7 L1,2.7 C1,3 1.2,3.2 1.5,3.2 L3,3.2 L3,1.7 C3,1.4 2.8,1.2 2.5,1.2 L1.5,1.2 Z" id="Shape"></path>
                </g>
                <g id="XMLID_16_" transform="translate(3.000000, 7.000000)">
                    <path d="M6,3.5 L5,3.5 L5,1 L1,1 L1,3.5 L0,3.5 L0,1 C0,0.4 0.4,0 1,0 L5,0 C5.5,0 6,0.4 6,1 L6,3.5 Z" id="Shape"></path>
                </g>
                <g id="XMLID_15_" transform="translate(10.000000, 4.000000)">
                    <rect id="Rectangle-path" x="0.7" y="0.5" width="4" height="1"></rect>
                </g>
                <g id="XMLID_14_" transform="translate(10.000000, 6.000000)">
                    <rect id="Rectangle-path" x="0.7" y="0.5" width="2" height="1"></rect>
                </g>
            </g>
        </g>
    </g>
</svg>