<?xml version="1.0" encoding="UTF-8" standalone="no"?>
<svg width="152px" height="31px" viewBox="0 0 152 31" version="1.1" xmlns="http://www.w3.org/2000/svg" xmlns:xlink="http://www.w3.org/1999/xlink">
    <!-- Generator: Sketch 44.1 (41455) - http://www.bohemiancoding.com/sketch -->
    <title>Group 4</title>
    <desc>Created with Sketch.</desc>
    <defs>
        <polygon id="path-1" points="26.15425 3.82321333 26.15425 0.594013333 0.044425 0.594013333 0.044425 3.82321333 26.15425 3.82321333"></polygon>
        <polygon id="path-3" points="0.42595 12.6848485 21.2212 12.6848485 21.2212 0.0148751515 0.42595 0.0148751515 0.42595 12.6848485"></polygon>
        <polygon id="path-5" points="0.000458574245 24.2666667 26.2003 24.2666667 26.2003 0.18408 0.000458574245 0.18408"></polygon>
    </defs>
    <g id="Page-1" stroke="none" stroke-width="1" fill="none" fill-rule="evenodd">
        <g id="友云音" transform="translate(-360.000000, -25.000000)">
            <g id="Group-39">
                <g id="Group-4" transform="translate(360.000000, 25.000000)">
                    <g id="Group-3-Copy-8" transform="translate(0.465686, 0.000000)" fill="#DF3528">
                        <path d="M39.1926098,31 L11.625,31 L11.625,27.125 L36.0833795,27.125 C36.8318603,28.631126 37.897376,29.9518982 39.1926098,31 Z M0,19.375 C0,13.7191801 4.03900099,9.00671953 9.38997085,7.96465024 C8.73351727,9.39479462 8.25815209,10.9253258 7.99323521,12.5268838 C5.54327841,13.8288752 3.875,16.4071139 3.875,19.375 C3.875,23.6552068 7.34479319,27.125 11.625,27.125 L11.625,31 C5.20468978,31 0,25.7953102 0,19.375 Z" id="Combined-Shape"></path>
                        <path d="M46.5,31 C41.5064254,31 37.4583333,26.9519079 37.4583333,21.9583333 C37.4583333,16.9647587 41.5064254,12.9166667 46.5,12.9166667 C51.4935746,12.9166667 55.5416667,16.9647587 55.5416667,21.9583333 C55.5416667,26.9519079 51.4935746,31 46.5,31 Z M46.5,27.125 C49.3534712,27.125 51.6666667,24.8118045 51.6666667,21.9583333 C51.6666667,19.1048621 49.3534712,16.7916667 46.5,16.7916667 C43.6465288,16.7916667 41.3333333,19.1048621 41.3333333,21.9583333 C41.3333333,24.8118045 43.6465288,27.125 46.5,27.125 Z" id="Combined-Shape-Copy-7"></path>
                        <path d="M10.3333333,15.5 C10.3333333,6.93958638 17.2729197,0 25.8333333,0 C34.393747,0 41.3333333,6.93958638 41.3333333,15.5 L37.4583333,15.5 C37.4583333,9.07968978 32.2536435,3.875 25.8333333,3.875 C19.4130231,3.875 14.2083333,9.07968978 14.2083333,15.5 L10.3333333,15.5 Z M37.4583333,15.5 L41.3333333,15.5 L41.3333333,21.9583333 L37.4583333,21.9583333 L37.4583333,15.5 Z" id="Combined-Shape"></path>
                        <circle id="Oval-7" cx="15.5" cy="15.5" r="5.16666667"></circle>
                    </g>
                    <g id="Page-1-Copy-3" transform="translate(68.000000, 5.000000)">
                        <g id="Group-3" transform="translate(57.200000, 7.335088)">
                            <mask id="mask-2" fill="white">
                                <use xlink:href="#path-1"></use>
                            </mask>
                            <g id="Clip-2"></g>
                            <path d="M25.471925,3.82321333 L0.726925,3.82321333 C0.350675,3.82321333 0.044425,3.51988 0.044425,3.14721333 L0.044425,1.27001333 C0.044425,0.897346667 0.350675,0.594013333 0.726925,0.594013333 L25.471925,0.594013333 C25.848175,0.594013333 26.154425,0.897346667 26.154425,1.27001333 L26.154425,3.14721333 C26.154425,3.51988 25.848175,3.82321333 25.471925,3.82321333" id="Fill-1" fill="#DF3528" mask="url(#mask-2)"></path>
                        </g>
                        <path d="M81.50555,5.56067515 L59.0933,5.56067515 C58.71705,5.56067515 58.4108,5.25734182 58.4108,4.88467515 L58.4108,3.00747515 C58.4108,2.63480848 58.71705,2.33147515 59.0933,2.33147515 L81.50555,2.33147515 C81.8818,2.33147515 82.18805,2.63480848 82.18805,3.00747515 L82.18805,4.88467515 C82.18805,5.25734182 81.8818,5.56067515 81.50555,5.56067515" id="Fill-4" fill="#DF3528"></path>
                        <path d="M73.247125,9.19166182 L76.090875,9.19166182 C76.255375,9.19166182 76.405875,9.11712848 76.479375,8.99752848 C77.179375,7.87606182 77.480375,7.03539515 77.788375,5.33152848 C77.807625,5.23099515 77.770875,5.12872848 77.686875,5.05072848 C77.604625,4.97446182 77.483875,4.92939515 77.357875,4.92939515 L74.400375,4.92939515 C74.178125,4.92939515 73.990875,5.06459515 73.966375,5.24139515 C73.745875,6.81006182 73.511375,7.57792848 72.853375,8.68899515 C72.788625,8.79819515 72.797375,8.92646182 72.877875,9.02872848 C72.958375,9.12926182 73.096625,9.19166182 73.247125,9.19166182" id="Fill-6" fill="#DF3528"></path>
                        <path d="M64.5981,9.19166182 L67.3281,9.19166182 L67.3421,9.19166182 C67.5836,9.19166182 67.77785,9.03392848 67.77785,8.83979515 C67.77785,8.76526182 67.7481,8.69592848 67.6991,8.63699515 C67.12685,7.42712848 66.90985,6.61939515 66.6911,5.23619515 C66.6631,5.06112848 66.4776,4.92939515 66.25885,4.92939515 L63.30135,4.92939515 C63.1806,4.92939515 63.06335,4.97099515 62.9811,5.04206182 C62.89885,5.11486182 62.85685,5.21019515 62.86735,5.30899515 C63.0231,6.91232848 63.35735,7.82579515 64.2201,9.01659515 C64.29885,9.12579515 64.44235,9.19166182 64.5981,9.19166182" id="Fill-8" fill="#DF3528"></path>
                        <path d="M72.30335,0.794008485 C72.11085,0.554808485 71.7941,0.551341818 71.7591,0.551341818 L69.00635,0.551341818 C68.47785,0.551341818 68.26435,0.948275152 68.22935,1.15107515 C68.22935,1.15107515 68.23285,1.88600848 68.1891,3.13920848 L72.38035,3.13920848 C72.41885,2.72494182 72.4381,2.31067515 72.4451,1.89640848 C72.45035,1.68320848 72.45035,1.47000848 72.45035,1.25680848 C72.45035,1.08174182 72.4241,0.929208485 72.30335,0.794008485" id="Fill-10" fill="#DF3528"></path>
                        <g id="Group-14" transform="translate(59.500000, 11.983573)">
                            <mask id="mask-4" fill="white">
                                <use xlink:href="#path-3"></use>
                            </mask>
                            <g id="Clip-13"></g>
                            <path d="M5.5377,9.58807515 L5.5377,9.58807515 L4.81495,9.58807515 C4.5157,9.58807515 4.27245,9.34714182 4.27245,9.04900848 L4.27245,8.64687515 L4.26895,8.65034182 L4.26895,7.80274182 L17.4202,7.80274182 L17.4202,8.64860848 L17.41845,8.64687515 L17.41845,9.04900848 C17.41845,9.34714182 17.1752,9.58807515 16.8742,9.58807515 L16.1532,9.58807515 L16.1532,9.58807515 L5.5377,9.58807515 Z M4.26895,4.05354182 L4.27245,3.91834182 L4.27245,3.67914182 C4.27245,3.38274182 4.5157,3.14180848 4.81495,3.14180848 L5.5377,3.14180848 L5.5377,3.13660848 L16.1532,3.13660848 L16.1532,3.14180848 L16.8742,3.14180848 C17.1752,3.14180848 17.41845,3.38274182 17.41845,3.67914182 L17.41845,4.05700848 L17.4202,3.91660848 L17.4202,4.76940848 L4.26895,4.76940848 L4.26895,4.05354182 Z M19.9192,0.0148751515 L1.72445,0.0148751515 C1.00695,0.0148751515 0.42595,0.590341818 0.42595,1.30100848 L0.42595,2.55247515 L0.42595,3.24407515 L0.42595,4.69140848 L0.42595,7.66754182 L0.42595,7.92060848 L0.42595,9.45634182 L0.42595,11.3820752 C0.42595,12.1014085 1.0157,12.6855418 1.74195,12.6855418 L8.1347,12.6855418 L13.52295,12.6855418 L19.9052,12.6855418 C20.63145,12.6855418 21.2212,12.1014085 21.2212,11.3820752 L21.2212,7.66754182 L21.2212,7.66754182 L21.2212,4.69140848 L21.2212,3.24407515 L21.2212,2.55247515 L21.2212,1.30447515 C21.2212,0.592075152 20.63845,0.0148751515 19.9192,0.0148751515 L19.9192,0.0148751515 Z" id="Fill-12" fill="#DF3528" mask="url(#mask-4)"></path>
                        </g>
                        <g id="Group-17" transform="translate(0.000000, 0.401755)">
                            <mask id="mask-6" fill="white">
                                <use xlink:href="#path-5"></use>
                            </mask>
                            <g id="Clip-16"></g>
                            <path d="M25.53005,2.76848 L9.3373,2.76848 C9.43705,1.67648 9.4773,1.02128 9.4773,1.02128 C9.53155,0.721413333 9.43355,0.534213333 9.3373,0.426746667 C9.14655,0.187546667 8.82805,0.18408 8.7948,0.18408 L6.0403,0.18408 C5.5118,0.18408 5.2983,0.581013333 5.2633,0.783813333 C5.2633,0.783813333 5.2213,1.53434667 5.11805,2.76848 L0.90405,2.76848 C0.5278,2.76848 0.2233,3.07008 0.2233,3.44101333 L0.2233,5.31474667 C0.2233,5.68394667 0.52605,5.98381333 0.90055,5.98381333 L4.79255,5.98381333 C4.17655,11.10928 2.8483,18.78968 0.1253,23.1247467 C0.04305,23.2634133 -0.0847,23.6326133 0.08155,23.9151467 C0.1568,24.03128 0.29855,24.16648 0.61355,24.1699467 L3.3068,24.1699467 L3.3103,24.1699467 C3.4818,24.16648 4.04355,24.1006133 4.39705,23.5650133 L4.44955,23.48528 C4.4548,23.4731467 4.4653,23.4575467 4.4653,23.4558133 C6.2223,20.39128 7.4018,15.75288 8.1683,11.48368 L18.9028,11.48368 C19.05155,11.48368 19.2948,11.4698133 19.2948,11.8667467 C19.2948,12.5479467 18.0243,14.3454133 16.34955,16.1654133 C15.50255,15.2970133 14.7098,14.35928 13.99755,13.35048 C13.80855,13.0818133 13.4883,13.0818133 13.4883,13.0818133 L9.7503,13.0818133 C9.4073,13.0818133 9.3758,13.3106133 9.4458,13.47008 C10.63755,15.6107467 12.10405,17.3995467 13.54955,18.8503467 C12.52755,19.7031467 11.5143,20.39128 10.65155,20.74488 C10.21755,20.9199467 9.6208,21.01528 9.2848,21.01528 L8.48155,21.01528 C7.95305,21.01528 7.84455,21.3290133 7.84455,21.7155467 L7.84455,23.5858133 C7.84455,24.0503467 8.07555,24.16648 8.4483,24.16648 L10.3103,24.16648 C10.97355,24.16648 11.7838,23.9983467 12.4453,23.6915467 C13.5268,23.18888 14.87255,22.3274133 16.2673,21.23368 C18.1503,22.6862133 19.93705,23.44888 22.0073,23.96368 C22.8508,24.1734133 23.72055,24.2670133 24.5903,24.2670133 L25.1223,24.2670133 C25.4443,24.2670133 25.7978,24.0867467 25.7978,23.6794133 L25.7978,21.5647467 C25.7978,21.1695467 25.5353,21.0655467 25.26405,21.0655467 L24.9718,21.0655467 C21.1428,20.7171467 19.9808,19.2611467 19.16705,18.64928 C21.9128,15.8967467 24.2158,12.5999467 24.2158,9.93234667 C24.2158,8.70688 23.19905,8.25794667 22.2173,8.25794667 L8.69155,8.25794667 C8.80705,7.45888 8.9068,6.69274667 8.99255,5.98381333 L25.53005,5.98381333 C25.8958,5.98381333 26.2003,5.68568 26.2003,5.31474667 L26.2003,3.44101333 C26.2003,3.07181333 25.8958,2.76848 25.53005,2.76848" id="Fill-15" fill="#DF3528" mask="url(#mask-6)"></path>
                        </g>
                        <path d="M30.751,4.86248848 L52.5105,4.86248848 C52.92175,4.86248848 53.25425,4.52795515 53.25425,4.12235515 L53.25425,2.17235515 C53.25425,1.76502182 52.92175,1.43568848 52.5105,1.43568848 L30.751,1.43568848 C30.33975,1.43568848 29.9985,1.76502182 29.9985,2.17235515 L29.9985,4.12235515 C29.9985,4.52795515 30.33975,4.86248848 30.751,4.86248848" id="Fill-18" fill="#DF3528"></path>
                        <path d="M54.045775,8.33955515 L29.209775,8.33955515 C28.798525,8.33955515 28.464275,8.67582182 28.464275,9.08142182 L28.464275,11.0296885 C28.464275,11.4352885 28.798525,11.7680885 29.209775,11.7680885 L33.233025,11.7680885 L29.610525,21.6099552 C29.556275,21.7364885 29.057525,22.8804885 29.621025,23.7523552 C30.004275,24.3607552 30.786525,24.6675552 31.925775,24.6675552 L50.498525,24.6675552 C51.758525,24.6675552 52.696525,24.3226218 53.233775,23.6743552 C53.702775,23.1110218 53.842775,22.3587552 53.659025,21.4348885 L52.045525,15.9003552 C51.916025,15.4566218 51.646525,15.2936885 51.441775,15.2295552 L51.399775,15.2174218 L48.556025,15.2174218 L48.421275,15.2174218 L47.100025,15.2174218 C46.480525,15.2174218 46.351025,15.5918218 46.351025,15.9003552 L46.351025,16.4706218 C46.351025,16.9386218 46.737775,17.1864885 47.112275,17.1864885 C47.138525,17.1864885 47.164775,17.1847552 47.187525,17.1830218 L47.803525,17.1830218 C48.150025,18.4310218 48.949775,21.0344885 48.951525,21.0448885 L35.093275,21.0448885 C34.822025,21.0448885 34.813275,20.8663552 34.848275,20.7571552 L37.977275,11.7680885 L54.045775,11.7680885 C54.458775,11.7680885 54.791275,11.4352885 54.791275,11.0296885 L54.791275,9.08142182 C54.791275,8.67582182 54.458775,8.33955515 54.045775,8.33955515" id="Fill-20" fill="#DF3528"></path>
                    </g>
                </g>
            </g>
        </g>
    </g>
</svg>